<?xml version="1.0" encoding="utf-8"?>
<!-- Generator: Adobe Illustrator 21.1.0, SVG Export Plug-In . SVG Version: 6.00 Build 0)  -->
<svg version="1.1" id="Capa_1" xmlns="http://www.w3.org/2000/svg" xmlns:xlink="http://www.w3.org/1999/xlink" x="0px" y="0px"
	 viewBox="0 0 61.5 61.5" style="enable-background:new 0 0 61.5 61.5;" xml:space="preserve">
<style type="text/css">
	.st0{fill:#989898;}
</style>
<path class="st0" d="M61.5,3.4v54.7c0,1.9-1.5,3.4-3.4,3.4H42.4V37.7h8l1.2-9.3h-9.2v-5.9c0-2.7,0.7-4.5,4.6-4.5h4.9V9.6
	c-0.8-0.1-3.8-0.4-7.2-0.4c-7.1,0-11.9,4.3-11.9,12.3v6.8h-8v9.3h8v23.8H3.4C1.5,61.4,0,59.9,0,58V3.4C0,1.5,1.5,0,3.4,0h54.7
	C60,0,61.5,1.5,61.5,3.4z"/>
</svg>
