<?xml version="1.0" encoding="utf-8"?>
<!-- Generator: Adobe Illustrator 21.1.0, SVG Export Plug-In . SVG Version: 6.00 Build 0)  -->
<svg version="1.1" id="Capa_1" xmlns="http://www.w3.org/2000/svg" xmlns:xlink="http://www.w3.org/1999/xlink" x="0px" y="0px"
	 viewBox="0 0 61.8 61.7" style="enable-background:new 0 0 61.8 61.7;" xml:space="preserve">
<style type="text/css">
	.st0{fill:#989898;}
</style>
<path class="st0" d="M30.8,5.6c8.2,0,9.2,0,12.4,0.2c3,0.1,4.6,0.6,5.7,1.1c1.4,0.6,2.5,1.2,3.5,2.3c1.1,1.1,1.7,2.1,2.3,3.5
	c0.4,1.1,0.9,2.7,1.1,5.7c0.1,3.2,0.2,4.2,0.2,12.4s0,9.2-0.2,12.4c-0.1,3-0.6,4.6-1.1,5.7c-0.6,1.4-1.2,2.5-2.3,3.5
	c-1.1,1.1-2.1,1.7-3.5,2.3c-1.1,0.4-2.7,0.9-5.7,1.1C40,55.9,39,56,30.8,56s-9.2,0-12.4-0.2c-3-0.1-4.6-0.6-5.7-1.1
	c-1.4-0.6-2.5-1.2-3.5-2.3c-1.1-1.1-1.7-2.1-2.3-3.5c-0.4-1.1-0.9-2.7-1.1-5.7C5.6,40,5.5,39.1,5.5,30.8s0-9.2,0.2-12.4
	c0.1-3,0.6-4.6,1.1-5.7c0.6-1.4,1.2-2.5,2.3-3.5c1.1-1.1,2.1-1.7,3.5-2.3c1.1-0.4,2.7-0.9,5.7-1.1C21.6,5.6,22.6,5.6,30.8,5.6
	 M30.8,0c-8.4,0-9.4,0-12.7,0.2c-3.3,0.1-5.5,0.7-7.5,1.4c-2,0.8-3.7,1.8-5.5,3.6c-1.7,1.7-2.8,3.4-3.6,5.5c-0.8,2-1.3,4.2-1.4,7.5
	C0,21.4,0,22.5,0,30.8c0,8.4,0,9.4,0.2,12.7C0.3,46.8,0.9,49,1.6,51c0.8,2,1.8,3.7,3.6,5.5c1.7,1.7,3.4,2.8,5.5,3.6
	c2,0.8,4.2,1.3,7.5,1.4c3.3,0.1,4.3,0.2,12.7,0.2s9.4,0,12.7-0.2c3.3-0.1,5.5-0.7,7.5-1.4c2-0.8,3.7-1.8,5.5-3.6
	c1.7-1.7,2.8-3.4,3.6-5.5c0.8-2,1.3-4.2,1.4-7.5c0.1-3.3,0.2-4.3,0.2-12.7s0-9.4-0.2-12.7c-0.1-3.3-0.7-5.5-1.4-7.5
	c-0.8-2-1.8-3.7-3.6-5.5C54.7,3.5,53,2.4,51,1.7c-2-0.8-4.2-1.3-7.5-1.4C40.2,0.1,39.2,0,30.8,0L30.8,0z M30.8,15
	C22.1,15,15,22.1,15,30.8s7.1,15.8,15.8,15.8s15.8-7,15.8-15.8S39.5,15,30.8,15z M30.8,41.1c-5.7,0-10.3-4.6-10.3-10.3
	s4.6-10.3,10.3-10.3s10.3,4.6,10.3,10.3S36.5,41.1,30.8,41.1z M47.2,10.7c-2,0-3.7,1.7-3.7,3.7s1.7,3.7,3.7,3.7s3.7-1.7,3.7-3.7
	S49.3,10.7,47.2,10.7z"/>
</svg>
