<?xml version="1.0" encoding="utf-8"?>
<!-- Generator: Adobe Illustrator 21.1.0, SVG Export Plug-In . SVG Version: 6.00 Build 0)  -->
<svg version="1.1" id="Capa_1" xmlns="http://www.w3.org/2000/svg" xmlns:xlink="http://www.w3.org/1999/xlink" x="0px" y="0px"
	 viewBox="0 0 76.2 61.8" style="enable-background:new 0 0 76.2 61.8;" xml:space="preserve">
<style type="text/css">
	.st0{fill:#989898;}
</style>
<path class="st0" d="M23.9,61.8c-8.9,0-17-2.6-23.9-7c1.2,0.1,2.5,0.3,3.8,0.3c7.3,0,14.1-2.5,19.4-6.7c-6.8-0.1-12.7-4.7-14.6-10.8
	c0.9,0.1,2,0.3,2.9,0.3c1.4,0,2.7-0.1,4.2-0.5C8.5,35.9,3.1,29.6,3.1,22.1c0-0.1,0-0.1,0-0.3c2.1,1.2,4.6,1.8,7,2
	C6,21,3.3,16.2,3.3,10.7c0-2.9,0.8-5.5,2.1-7.8c7.7,9.4,19.2,15.7,32.2,16.3c-0.3-1.2-0.4-2.3-0.4-3.5C37.2,7,44.2,0,52.8,0
	c4.4,0,8.6,2,11.4,5c3.5-0.7,6.9-2,9.9-3.8c-1.2,3.7-3.7,6.7-6.9,8.6c3.1-0.4,6.1-1.2,9-2.5c-2.1,3.1-4.7,5.9-7.8,8.1
	c0,0.7,0,1.3,0,2C68.2,38.1,52.6,61.8,23.9,61.8"/>
</svg>
